<svg width="46" height="46" viewBox="0 0 46 46" fill="none" xmlns="http://www.w3.org/2000/svg">
<rect width="46" height="46" rx="23" fill="#049DD4"/>
<path d="M14.8222 25.9634C14.0627 25.1875 13.4898 24.2489 13.1468 23.2187C12.8038 22.1885 12.6998 21.0938 12.8425 20.0175C12.9853 18.9411 13.3711 17.9114 13.9708 17.0062C14.5705 16.1011 15.3682 15.3443 16.3037 14.7932C17.2392 14.242 18.2879 13.911 19.3702 13.8251C20.4526 13.7393 21.5403 13.9009 22.551 14.2977C23.5616 14.6945 24.4688 15.3161 25.2036 16.1154C25.9385 16.9147 26.4818 17.8707 26.7924 18.9111H28.6222C29.6092 18.911 30.57 19.2283 31.3628 19.8162C32.1555 20.4041 32.7382 21.2314 33.0247 22.1759C33.3111 23.1204 33.2863 24.1319 32.9537 25.0612C32.6211 25.9904 31.9985 26.7881 31.1777 27.3363M23 23V32.2M23 23L27.0889 27.0889M23 23L18.9111 27.0889" stroke="white" stroke-width="2" stroke-linecap="round" stroke-linejoin="round"/>
</svg>
