<svg width="138" height="46" viewBox="0 0 138 46" fill="none" xmlns="http://www.w3.org/2000/svg">
<rect width="46" height="46" rx="23" fill="#049DD4"/>
<path d="M14.8222 25.9634C14.0627 25.1875 13.4898 24.2489 13.1468 23.2187C12.8038 22.1885 12.6998 21.0938 12.8425 20.0175C12.9853 18.9411 13.3711 17.9114 13.9708 17.0062C14.5705 16.1011 15.3682 15.3443 16.3037 14.7932C17.2392 14.242 18.2879 13.911 19.3702 13.8251C20.4526 13.7393 21.5403 13.9009 22.551 14.2977C23.5616 14.6945 24.4688 15.3161 25.2036 16.1154C25.9385 16.9147 26.4818 17.8707 26.7924 18.9111H28.6222C29.6092 18.911 30.57 19.2283 31.3628 19.8162C32.1555 20.4041 32.7382 21.2314 33.0247 22.1759C33.3111 23.1204 33.2863 24.1319 32.9537 25.0612C32.6211 25.9904 31.9985 26.7881 31.1777 27.3363M23 23V32.2M23 23L27.0889 27.0889M23 23L18.9111 27.0889" stroke="white" stroke-width="2" stroke-linecap="round" stroke-linejoin="round"/>
<path d="M60.66 19V5H63.9V19H60.66ZM73.5425 8.08C74.3958 8.08 75.1558 8.25333 75.8225 8.6C76.5025 8.93333 77.0358 9.45333 77.4225 10.16C77.8092 10.8533 78.0025 11.7467 78.0025 12.84V19H74.8825V13.32C74.8825 12.4533 74.6892 11.8133 74.3025 11.4C73.9292 10.9867 73.3958 10.78 72.7025 10.78C72.2092 10.78 71.7625 10.8867 71.3625 11.1C70.9758 11.3 70.6692 11.6133 70.4425 12.04C70.2292 12.4667 70.1225 13.0133 70.1225 13.68V19H67.0025V8.24H69.9825V11.22L69.4225 10.32C69.8092 9.6 70.3625 9.04667 71.0825 8.66C71.8025 8.27333 72.6225 8.08 73.5425 8.08ZM85.5288 19.16C84.5154 19.16 83.6021 18.9333 82.7888 18.48C81.9754 18.0133 81.3288 17.3667 80.8488 16.54C80.3821 15.7133 80.1488 14.74 80.1488 13.62C80.1488 12.4867 80.3821 11.5067 80.8488 10.68C81.3288 9.85333 81.9754 9.21333 82.7888 8.76C83.6021 8.30667 84.5154 8.08 85.5288 8.08C86.4354 8.08 87.2288 8.28 87.9088 8.68C88.5888 9.08 89.1154 9.68667 89.4888 10.5C89.8621 11.3133 90.0488 12.3533 90.0488 13.62C90.0488 14.8733 89.8688 15.9133 89.5088 16.74C89.1488 17.5533 88.6288 18.16 87.9488 18.56C87.2821 18.96 86.4754 19.16 85.5288 19.16ZM86.0688 16.6C86.5754 16.6 87.0354 16.48 87.4488 16.24C87.8621 16 88.1888 15.66 88.4288 15.22C88.6821 14.7667 88.8088 14.2333 88.8088 13.62C88.8088 12.9933 88.6821 12.46 88.4288 12.02C88.1888 11.58 87.8621 11.24 87.4488 11C87.0354 10.76 86.5754 10.64 86.0688 10.64C85.5488 10.64 85.0821 10.76 84.6688 11C84.2554 11.24 83.9221 11.58 83.6688 12.02C83.4288 12.46 83.3088 12.9933 83.3088 13.62C83.3088 14.2333 83.4288 14.7667 83.6688 15.22C83.9221 15.66 84.2554 16 84.6688 16.24C85.0821 16.48 85.5488 16.6 86.0688 16.6ZM88.8888 19V16.8L88.9488 13.6L88.7488 10.42V4.16H91.8688V19H88.8888ZM100.096 19.16C98.8697 19.16 97.7897 18.92 96.8564 18.44C95.9364 17.96 95.2231 17.3067 94.7164 16.48C94.2097 15.64 93.9564 14.6867 93.9564 13.62C93.9564 12.54 94.2031 11.5867 94.6964 10.76C95.2031 9.92 95.8897 9.26667 96.7564 8.8C97.6231 8.32 98.6031 8.08 99.6964 8.08C100.75 8.08 101.696 8.30667 102.536 8.76C103.39 9.2 104.063 9.84 104.556 10.68C105.05 11.5067 105.296 12.5 105.296 13.66C105.296 13.78 105.29 13.92 105.276 14.08C105.263 14.2267 105.25 14.3667 105.236 14.5H96.4964V12.68H103.596L102.396 13.22C102.396 12.66 102.283 12.1733 102.056 11.76C101.83 11.3467 101.516 11.0267 101.116 10.8C100.716 10.56 100.25 10.44 99.7164 10.44C99.1831 10.44 98.7097 10.56 98.2964 10.8C97.8964 11.0267 97.5831 11.3533 97.3564 11.78C97.1297 12.1933 97.0164 12.6867 97.0164 13.26V13.74C97.0164 14.3267 97.1431 14.8467 97.3964 15.3C97.6631 15.74 98.0297 16.08 98.4964 16.32C98.9764 16.5467 99.5364 16.66 100.176 16.66C100.75 16.66 101.25 16.5733 101.676 16.4C102.116 16.2267 102.516 15.9667 102.876 15.62L104.536 17.42C104.043 17.98 103.423 18.4133 102.676 18.72C101.93 19.0133 101.07 19.16 100.096 19.16ZM105.721 19L110.541 12.68L110.481 14.4L105.861 8.24H109.361L112.281 12.26L110.961 12.3L113.981 8.24H117.301L112.661 14.34V12.66L117.461 19H113.921L110.861 14.72L112.161 14.9L109.121 19H105.721Z" fill="#049DD5"/>
<path d="M60.824 40V28.8H65.656C66.904 28.8 67.8693 29.0507 68.552 29.552C69.2453 30.0533 69.592 30.7627 69.592 31.68C69.592 32.288 69.448 32.8 69.16 33.216C68.8827 33.632 68.4987 33.9467 68.008 34.16C67.528 34.3733 67 34.48 66.424 34.48L66.696 34.096C67.4107 34.096 68.024 34.208 68.536 34.432C69.0587 34.6453 69.464 34.9707 69.752 35.408C70.04 35.8347 70.184 36.368 70.184 37.008C70.184 37.9573 69.832 38.6933 69.128 39.216C68.4347 39.7387 67.384 40 65.976 40H60.824ZM62.008 39.024H65.96C66.9413 39.024 67.6933 38.8587 68.216 38.528C68.7387 38.1867 69 37.648 69 36.912C69 36.1867 68.7387 35.6587 68.216 35.328C67.6933 34.9867 66.9413 34.816 65.96 34.816H61.88V33.84H65.576C66.472 33.84 67.1653 33.6693 67.656 33.328C68.1573 32.9867 68.408 32.48 68.408 31.808C68.408 31.1253 68.1573 30.6187 67.656 30.288C67.1653 29.9467 66.472 29.776 65.576 29.776H62.008V39.024ZM76.1185 40.08C75.4038 40.08 74.7798 39.9467 74.2465 39.68C73.7132 39.4133 73.2972 39.0133 72.9985 38.48C72.7105 37.9467 72.5665 37.28 72.5665 36.48V31.6H73.7025V36.352C73.7025 37.248 73.9212 37.9253 74.3585 38.384C74.8065 38.832 75.4305 39.056 76.2305 39.056C76.8172 39.056 77.3238 38.9387 77.7505 38.704C78.1878 38.4587 78.5185 38.1067 78.7425 37.648C78.9772 37.1893 79.0945 36.64 79.0945 36V31.6H80.2305V40H79.1425V37.696L79.3185 38.112C79.0518 38.7307 78.6358 39.216 78.0705 39.568C77.5158 39.9093 76.8652 40.08 76.1185 40.08ZM86.0525 40.08C85.2632 40.08 84.6552 39.8667 84.2285 39.44C83.8018 39.0133 83.5885 38.4107 83.5885 37.632V29.744H84.7245V37.568C84.7245 38.0587 84.8472 38.4373 85.0925 38.704C85.3485 38.9707 85.7112 39.104 86.1805 39.104C86.6818 39.104 87.0978 38.96 87.4285 38.672L87.8285 39.488C87.6045 39.6907 87.3325 39.84 87.0125 39.936C86.7032 40.032 86.3832 40.08 86.0525 40.08ZM82.0845 32.544V31.6H87.2845V32.544H82.0845ZM92.3338 40.08C91.5444 40.08 90.9364 39.8667 90.5098 39.44C90.0831 39.0133 89.8698 38.4107 89.8698 37.632V29.744H91.0058V37.568C91.0058 38.0587 91.1284 38.4373 91.3738 38.704C91.6298 38.9707 91.9924 39.104 92.4618 39.104C92.9631 39.104 93.3791 38.96 93.7098 38.672L94.1098 39.488C93.8858 39.6907 93.6138 39.84 93.2938 39.936C92.9844 40.032 92.6644 40.08 92.3338 40.08ZM88.3658 32.544V31.6H93.5658V32.544H88.3658ZM99.3049 40.08C98.4942 40.08 97.7635 39.8987 97.1129 39.536C96.4729 39.1627 95.9662 38.656 95.5929 38.016C95.2195 37.3653 95.0329 36.624 95.0329 35.792C95.0329 34.9493 95.2195 34.208 95.5929 33.568C95.9662 32.928 96.4729 32.4267 97.1129 32.064C97.7529 31.7013 98.4835 31.52 99.3049 31.52C100.137 31.52 100.873 31.7013 101.513 32.064C102.164 32.4267 102.67 32.928 103.033 33.568C103.406 34.208 103.593 34.9493 103.593 35.792C103.593 36.624 103.406 37.3653 103.033 38.016C102.67 38.656 102.164 39.1627 101.513 39.536C100.862 39.8987 100.126 40.08 99.3049 40.08ZM99.3049 39.072C99.9129 39.072 100.452 38.9387 100.921 38.672C101.39 38.3947 101.758 38.0107 102.025 37.52C102.302 37.0187 102.441 36.4427 102.441 35.792C102.441 35.1307 102.302 34.5547 102.025 34.064C101.758 33.5733 101.39 33.1947 100.921 32.928C100.452 32.6507 99.9182 32.512 99.3209 32.512C98.7235 32.512 98.1902 32.6507 97.7209 32.928C97.2515 33.1947 96.8782 33.5733 96.6009 34.064C96.3235 34.5547 96.1849 35.1307 96.1849 35.792C96.1849 36.4427 96.3235 37.0187 96.6009 37.52C96.8782 38.0107 97.2515 38.3947 97.7209 38.672C98.1902 38.9387 98.7182 39.072 99.3049 39.072ZM110.2 31.52C110.883 31.52 111.48 31.6533 111.992 31.92C112.515 32.176 112.92 32.5707 113.208 33.104C113.507 33.6373 113.656 34.3093 113.656 35.12V40H112.52V35.232C112.52 34.3467 112.296 33.68 111.848 33.232C111.411 32.7733 110.792 32.544 109.992 32.544C109.395 32.544 108.872 32.6667 108.424 32.912C107.987 33.1467 107.645 33.4933 107.4 33.952C107.165 34.4 107.048 34.944 107.048 35.584V40H105.912V31.6H107V33.904L106.824 33.472C107.091 32.864 107.517 32.3893 108.104 32.048C108.691 31.696 109.389 31.52 110.2 31.52Z" fill="white"/>
</svg>
